<svg fill="none" height="112" viewBox="0 0 106 112" width="106" xmlns="http://www.w3.org/2000/svg" xmlns:xlink="http://www.w3.org/1999/xlink"><clipPath id="a"><path d="m0 0h106v112h-106z"/></clipPath><g clip-path="url(#a)"><path d="m69.5453 56.7333s7.4307 12.8631 5.3839 22.8257-7.4308 16.7077-19.7726 18.5222c-12.3419 1.8144-22.87-2.9005-25.8862-11.6186s-4.0836-14.2323-.2668-24.2218c3.8167-9.9896 6.4174-14.981 6.4174-14.981z" fill="#85613f"/><path d="m63.104 56.8855s5.4042 9.8446 4.7287 18.8864c-.5404 7.1904-3.7357 12.7518-13.6929 14.1649-10.8084 1.5176-17.0164-5.2849-18.6005-11.3117-1.5842-6.0268-1.0134-17.4564 5.1677-23.9082 6.181-6.4517 22.397 2.1686 22.397 2.1686z" fill="#c5905d"/><path d="m57.4636 97.8184s6.1506-8.4854 5.9851-11.9828c0-.2597 6.6032-5.0589 3.3776-18.3367-3.1142-10.0773-5.5866-14.4515-5.5866-14.4515l8.2922 3.6862s6.4917 10.9238 5.6405 21.6891c-.8512 10.7652-9.7004 18.0433-17.7088 19.3957z" fill="#7f5c3b"/><path d="m51.3299 90.7258c-8.8662 0-14.4765-5.8481-16.0505-11.8344-1.6111-6.1213-1.0369-17.7128 5.2692-24.3096 2.675-2.7992 7.3632-3.2849 13.9327-1.4401 3.0964.8954 6.1003 2.0834 8.971 3.548l.1114.0573.0574.1113c.2263.4081 5.4616 10.0604 4.7793 19.1158-.6518 8.6642-5.1204 13.2812-14.0542 14.5358-.999.1429-2.007.2151-3.0163.2159zm-3.7592-37.8235c-2.5265 0-4.83.607-6.4175 2.2596-6.0798 6.3641-6.6235 17.5813-5.0665 23.5136 2.3644 8.9745 11.055 11.9963 18.1345 11.0014 8.5927-1.2074 12.7031-5.4535 13.3314-13.7669.6282-8.3134-4.0329-17.4295-4.6172-18.5492-1.0268-.5295-8.9202-4.4585-15.3647-4.4585z" fill="#735334"/><path d="m58.6997 54.8921s8.1435 13.7534 4.9246 30.4847c.6755-.1045 3.9991-4.4653 4.0532-10.7922.054-6.327-3.6849-16.6403-4.8029-17.7634-1.1586-.8634-4.1749-1.9291-4.1749-1.9291z" fill="#b58556"/><path d="m50.3503 99.1338c-3.9221.049-7.8104-.7302-11.4098-2.2866-4.8097-2.1584-8.1568-5.6187-9.6734-10.0098-3.229-9.3252-3.9755-14.7921-.2635-24.5085 3.7796-9.8986 6.4176-14.9743 6.448-15.0249l.1586-.3035 34.6072 9.6118.0844.1484c1.3688 2.4889 2.5366 5.0827 3.4924 7.757 1.4794 4.1213 3.0163 10.1177 1.9422 15.3722-2.2934 11.1801-8.6871 17.1732-20.1238 18.8595-1.7424.2558-3.5012.3843-5.2623.3844zm-14.3043-51.135c-.6148 1.2242-3.0095 6.1414-6.2554 14.6302-3.6174 9.4702-2.8811 14.8124.2736 23.9453 1.4389 4.1618 4.6308 7.4534 9.2243 9.5141 4.5936 2.0606 10.2275 2.698 16.2126 1.8245 11.0347-1.6255 17.2056-7.4196 19.4179-18.1916 1.8712-9.106-4.4449-20.91-5.2521-22.3805z" fill="#1f1f1e"/><path d="m66.1914 61.2359s11.0786 3.9762 17.7494 11.5072 5.1509 3.1365 6.8025 4.5193c.1588.2934 2.7696-.8196 3.2391-2.9814-.1081-.1956 0 .3373-4.7286-4.8261-4.7287-5.1635-17.4318-12.3133-19.3571-13.0418" fill="#7f5c3b"/><path d="m34.8471 60.295s-9.9606 6.2696-14.8615 15.0585c-4.901 8.789-4.3538 4.1685-5.6643 5.8784-.0946.3204-2.8846-.2057-3.8101-2.2158.0642-.2124.0609.3373 3.5703-5.7333 3.5093-6.0707 14.3615-15.7803 16.0841-16.9034" fill="#85613f"/><path d="m105.686 28.206c.158-7.3949-4.055-13.4818-9.4091-13.5957-5.3544-.1138-9.8229 5.7885-9.9806 13.1833s4.055 13.4818 9.4094 13.5957c5.3543.1138 9.8233-5.7885 9.9803-13.1833z" fill="#c7915c"/><path d="m100.241 29.2875-.8341-.1315c0-.0405.6151-3.983-1.0571-6.0066-.3181-.3784-.7173-.6806-1.168-.8843-.4508-.2037-.9415-.3038-1.4362-.2927-1.5165-.0438-2.6784.3373-3.462 1.1332-1.2092 1.2343-1.1248 3.0589-1.1248 3.0792l-.8444.0438c0-.0911-.098-2.2158 1.351-3.7098.9559-.9747 2.3306-1.4401 4.0937-1.3862.615-.0066 1.2237.1234 1.7822.3806.5585.2573 1.0528.6353 1.4469 1.1067 1.9318 2.3136 1.2798 6.4922 1.2528 6.6676z" fill="#7a5939"/><path d="m19.9233 26.5559c.1577-7.3948-4.055-13.4818-9.4094-13.5956-5.35437-.1139-9.822805 5.7885-9.980522 13.1833s4.055012 13.4819 9.409392 13.5958c5.35433.1138 9.82283-5.7887 9.98053-13.1835z" fill="#c7915c"/><path d="m5.5698 27.2337c-.02027-.1787-.48984-4.3844 1.52322-6.6136.41387-.4544.9239-.8112 1.49289-1.0445s1.18277-.3373 1.79699-.3046c1.7598.0203 3.1176.543 4.0296 1.5582 1.3983 1.5581 1.2125 3.6795 1.2057 3.7671l-.8411-.0809c0-.0169.1554-1.8515-1.0133-3.1264-.7464-.8296-1.8947-1.258-3.4045-1.2748-.49354-.031-.98792.0487-1.44668.2331s-.87034.4688-1.20476.8326c-1.75974 1.9494-1.31724 5.9155-1.31048 5.956z" fill="#7a5939"/><path d="m36.3332 58.1534 32.0874.6745c12.1865.2597 22.2687-9.2476 22.5254-21.2472l.3107-14.6269c.2533-11.9895-9.4168-21.92176-21.6168-22.174708l-32.0875-.367611c-12.1864-.256316-22.2619 8.937339-22.5186 20.926819l-.3107 14.6269c-.2465 12.003 9.4236 21.9285 21.6101 22.1882z" fill="#7a5939"/><path d="m53.0659 22.3162c3.3776-6.8801 6.1742-11.8344 15.4356-11.4466 11.2948.4722 17.8205 12.4786 18.3609 19.9826.5303 7.3927-2.4725 21.7396-2.4725 21.7396s-5.2488 6.2494-15.9626 6.2393c-10.7138-.0877-32.0874-.6745-32.0874-.6745s-8.2887.5733-15.8343-7.0285c0 0-2.3846-14.2963-1.5402-21.6587.868-7.4804 7.8799-19.1798 19.1848-19.1798 9.2716 0 11.8623 5.0588 14.936 12.0906" fill="#c7915c"/><path d="m68.9442 37.5977c5.1765 0 9.3729-4.1901 9.3729-9.3589s-4.1964-9.3589-9.3729-9.3589-9.3729 4.1901-9.3729 9.3589 4.1964 9.3589 9.3729 9.3589z" fill="#fff"/><path d="m68.9238 38.0223c-2.5155.0033-4.9368-.9542-6.768-2.6763-1.8311-1.7222-2.9334-4.0784-3.0806-6.5858s.6718-4.9761 2.2888-6.9c1.6171-1.9239 3.91-3.1574 6.4086-3.4476 2.4987-.2902 5.0139.3849 7.03 1.8868 2.0162 1.502 3.3806 3.7171 3.8137 6.1913s-.0979 5.0201-1.4843 7.1159-3.5231 3.5827-5.9722 4.156c-.733.1714-1.4832.2585-2.236.2597zm.0203-18.7279c-.6822.0013-1.362.0794-2.0266.2327-1.1577.2536-2.2533.7341-3.2236 1.4137-.9702.6797-1.7958 1.5449-2.4286 2.5455-.6329 1.0006-1.0604 2.1167-1.2579 3.2836-.1976 1.1668-.1612 2.3613.107 3.514.2683 1.1527.763 2.2407 1.4556 3.2011.6926.9603 1.5694 1.7738 2.5793 2.3932 1.0098.6195 2.1327 1.0326 3.3037 1.2154s2.3666.1316 3.5177-.1505c2.1404-.4974 4.0229-1.7634 5.289-3.5569 1.2662-1.7936 1.8275-3.9895 1.5772-6.1695-.2503-2.1801-1.2948-4.1921-2.9346-5.653-1.6399-1.4609-3.7606-2.2686-5.9582-2.2693z" fill="#735334"/><path d="m36.7621 37.129c5.1765 0 9.3729-4.1902 9.3729-9.359 0-5.1687-4.1964-9.3589-9.3729-9.3589s-9.3729 4.1902-9.3729 9.3589c0 5.1688 4.1964 9.359 9.3729 9.359z" fill="#fff"/><path d="m36.7555 37.5537c-2.465.0003-4.8399-.9258-6.6522-2.5941s-2.9293-3.9567-3.1289-6.4099.5328-4.8916 2.0516-6.8302c1.5189-1.9386 3.7128-3.2353 6.1456-3.6322 2.4327-.397 4.9261.1349 6.984 1.4898 2.0578 1.3549 3.5295 3.4336 4.1224 5.8227.5929 2.389.2635 4.9134-.9226 7.071-1.1862 2.1576-3.1422 3.7904-5.4791 4.5736-1.0056.3384-2.0597.5104-3.1208.5093zm0-18.7279c-1.2978-.0006-2.5803.2805-3.7585.8238-1.1782.5434-2.224 1.336-3.0651 2.3229-.841.9869-1.4572 2.1446-1.8057 3.3929-.3485 1.2482-.4211 2.5572-.2127 3.8363.2083 1.279.6926 2.4976 1.4193 3.5712.7267 1.0737 1.6784 1.9767 2.7893 2.6467s2.3544 1.0908 3.6443 1.2333c1.29.1426 2.5955.0034 3.8262-.4078 2.011-.677 3.7159-2.0449 4.811-3.86s1.5092-3.9595 1.1685-6.051c-.3407-2.0916-1.414-3.9944-3.0286-5.3695-1.6147-1.375-3.6658-2.133-5.788-2.1388z" fill="#735334"/><path d="m80.9683 23.2538c-1.0028-2.0643-2.4613-3.8746-4.2659-5.295-3.9383-3.0656-8.819-3.5614-14.5069-1.4738l-.2905-.7892c14.311-5.2511 19.7861 7.0824 19.8401 7.2275z" fill="#7a5939"/><path d="m58.8685 36.5015s-1.2226 4.4349-5.6946 4.2933c-4.472-.1417-5.1948-2.0775-5.9717-4.4384-.0777.0237-.3681 8.0673 5.867 8.4787 5.5359.0641 5.6372-6.6305 5.7993-8.3336z" fill="#7a5939"/><path d="m25.2377 22.6268-.7499-.3879c6.9511-13.40936 20.1273-6.9374 20.2657-6.8699l-.3816.7521c-2.2002-1.0028-4.5866-1.5336-7.0051-1.5582h-.1149c-5.2083.0405-9.2479 2.7521-12.0142 8.0639z" fill="#7a5939"/><g fill="#735334"><path d="m57.3251 35.8608-.6756-.4924c0-.0168 1.3511-1.9122.9627-3.2747-.0861-.2629-.2337-.5015-.4305-.6962-.1967-.1947-.437-.3399-.701-.4235-.7262-.2934-1.3342-.3036-1.8071-.0304-.9491.5498-1.1619 2.064-1.1619 2.0775l-.8376-.1079c0-.0776.2634-1.9359 1.5705-2.6981.7093-.4148 1.5707-.4215 2.5535-.0236.384.1287.7318.347 1.0143.6368.2826.2897.4918.6426.6104 1.0293.5134 1.7605-1.0167 3.9122-1.0977 4.0032z"/><path d="m48.7153 35.638c-.0608-.0944-1.4997-2.3102-.9153-4.0471.1349-.3804.3585-.7233.6521-1.0007.2936-.2773.6488-.4811 1.0367-.5945 1.0133-.3575 1.8577-.3137 2.5535.1315 1.2733.8162 1.449 2.6812 1.4558 2.7588l-.8444.0742s-.1486-1.5346-1.0707-2.1248c-.4628-.2934-1.0708-.3102-1.8071-.0472-.2678.0711-.5146.2053-.7197.3913-.2051.1861-.3624.4185-.459.6778-.4526 1.3491.8072 3.295.8207 3.3153z"/><path d="m52.6076 34.5505-.03 6.3538.8444.004.03-6.3538z"/></g><path d="m55.3389 43.6781s-.4425-.8431-2.1583-.8566-2.5197.7655-2.5197.7655 2.5468 1.2546 4.678.0911z" fill="#d3534b"/><path d="m67.7112 37.4322c4.2862.7083 8.8697-1.4468 9.4574-4.9543s-3.0635-7.0453-7.3464-7.7569c-4.2828-.7117-9.3931 1.4333-9.974 4.9408-.581 3.5075 3.5802 7.0655 7.863 7.7704z" fill="#010101"/><path d="m36.3839 37.0107c4.3301.2968 8.6906-2.2799 8.9338-5.8312s-3.7154-6.7216-8.0489-7.0183c-4.3335-.2968-9.2141 2.3169-9.4573 5.8649-.2432 3.5479 4.2355 6.6878 8.5724 6.9846z" fill="#010101"/><path d="m86.0889 8.07373s-6.4716 45.68157-17.6617 50.75737c.1453-.0844 8.7413.2833 15.9626-6.2393 3.7154-4.3506 6.5054-6.8632 6.7723-19.308.2668-12.4449 1.2463-14.7584-5.0732-25.21007z" fill="#4b2e19" opacity=".15"/><path d="m91.3141 24.5794s2.7393-1.7335 4.9685-.6745c2.8912 1.349 3.2325 5.6154 3.2325 5.6154s.8139-7.2578-2.4387-7.5681c-3.2527-.3103-4.4686-.081-5.823 2.1045" fill="#4b2e19" opacity=".15"/><path d="m14.4528 23.3383s-2.5365-1.548-4.59011-1.0657c-2.94866.6981-4.10048 5.0757-4.10048 5.0757s-.01685-7.3016 3.24931-7.2578c3.26618.0439 4.45178.4047 5.55628 2.7251" fill="#4b2e19" opacity=".15"/><path d="m66.5324 60.9491c-.7273 0-1.4444.0303-2.1515.091-2.0886-4.257-5.5604-7.6816-9.8488-9.7153-4.2885-2.0336-9.1405-2.5562-13.7647-1.4825-4.6241 1.0737-8.7473 3.6803-11.6971 7.3947-2.9498 3.7143-4.5521 8.3171-4.5453 13.0575v.7184c-4.0445 2.2744-7.2204 5.8228-9.031 10.0905-1.8107 4.2678-2.1541 9.0142-.9766 13.4975s3.8096 8.4511 7.4847 11.2821c3.6752 2.831 8.1861 4.367 12.8279 4.366 5.536 0 24.9574 1.242 31.6755 1.242 6.7122 0 13.1495-2.663 17.8958-7.402 4.7463-4.7392 7.4126-11.1669 7.4126-17.8692 0-6.7022-2.6663-13.1299-7.4126-17.8691s-11.1836-7.4016-17.8958-7.4016z" fill="#d2f7ff"/><path d="m17.5905 92.0342c-.8465.3055-1.7675.3397-2.6345.0979-.8669-.2418-1.6367-.7476-2.2022-1.4469-1.0569-1.2482-2.048-2.5507-2.96892-3.9021-1.35105-2.0775-3.41815-8.9103 4.31322-9.8007 6.3972.2968 5.9514 2.0775 5.0665 2.9679 1.7833.8937 3.2695 1.9325 2.3643 3.268-.9052 1.3356-2.5265.2968-2.5265.2968s2.9723 2.2293 2.6751 3.5648c-.2972 1.3356-3.8675.1484-3.8675.1484s2.2327 2.0809 1.3511 3.5648c-.3681.579-.9217 1.0165-1.5706 1.2411z" fill="#b58556"/><path d="m87.8689 87.8087c.8465.3064 1.7676.3412 2.6348.0993s1.637-.7483 2.2019-1.4484c1.0578-1.2476 2.0488-2.5501 2.9689-3.902 1.3511-2.0776 3.4216-8.9104-4.3132-9.8008-6.3972.2968-5.9514 2.0809-5.0664 2.9713-1.7834.8903-3.2696 1.9291-2.3644 3.268s2.5298.2968 2.5298.2968-2.9756 2.2259-2.6784 3.5648c.2973 1.3389 3.8673.1484 3.8673.1484s-2.2326 2.0775-1.351 3.5615c.3662.5806.9206 1.0186 1.5707 1.2411z" fill="#b58556"/><path d="m62.7447 73.6224c-2.18-1.9571-4.7829-3.0639-7.6878-3.4891-.3549-.0528-.7124-.088-1.0698-.1333h-1.9912c-.5387.078-1.0799.1409-1.6161.2339-2.3907.4008-4.6417 1.3975-6.5449 2.898-2.9211 2.2322-4.9096 5.468-5.5807 9.0811-.1007.5031-.1334 1.0213-.2013 1.532 0 .0855-.0353.1685-.0529.2515v1.9923c.0755.5484.1384 1.0968.234 1.6402.5286 2.9383 1.9214 5.6525 4.0004 7.7964s4.75 3.6202 7.6722 4.2405c4.2215.8551 8.1484.0729 11.6851-2.3973 3.0459-2.1257 5.1051-5.001 5.9408-8.6183 1.3618-5.9166-.2568-10.9653-4.7878-15.0279zm-9.752 23.621c-2.4243 0-4.794-.7183-6.8099-2.0641-2.0158-1.3458-3.5871-3.2586-4.5152-5.4967s-1.1713-4.701-.6989-7.0772 1.6393-4.559 3.353-6.2726 3.8973-2.881 6.2748-3.3545c2.3775-.4736 4.8422-.2321 7.0824.694s4.1552 2.4951 5.5032 4.5088c1.348 2.0136 2.0682 4.3814 2.0697 6.804-.002 3.2492-1.294 6.3648-3.5923 8.6631-2.2984 2.2982-5.4154 3.5912-8.6668 3.5952z" fill="#58c4ec"/><path d="m54.0977 75.9847c-.73-.727-1.4852-.727-2.2178 0l-4.9312 4.9254c-.0898.0886-.1739.1827-.2518.2818-.128.1615-.2157.3512-.2555.5533-.0398.2022-.0308.4109.0264.6089.0607.2375.1844.4544.3581.6276.1736.1732.3908.2964.6287.3567.2378.0603.4875.0553.7227-.0143.2353-.0697.4473-.2014.614-.3814.8583-.8377 1.6992-1.6955 2.55-2.5457l.2845-.2692v.3975 6.88c0 .1459-.0001.2943.0175.4377.0237.2939.1436.5719.341.791s.4616.3672.7516.4215c.2747.0605.5617.0298.8174-.0873s.4663-.3143.5998-.5617c.1325-.2898.2012-.6046.2013-.9232.0177-2.3319 0-4.6638 0-6.9958v-.2968l.0982-.0453c.0505.0826.1078.1609.1713.234.8483.8527 1.694 1.703 2.5473 2.5482.2252.2487.534.406.8677.4422.3336.0362.6689-.0514.9422-.246.7225-.5207.7729-1.4816.1008-2.1558-1.6563-1.6603-3.3178-3.3214-4.9842-4.9833z" fill="#58c4ec"/><path d="m55.6587 91.7971c-1.7772-.0101-3.5552-.0101-5.334 0-.1862-.0064-.3717.0248-.5454.0918-.1737.0669-.3322.1683-.4657.298-.1336.1297-.2395.285-.3115.4567-.072.1716-.1084.356-.1073.5421 0 .7798.6217 1.3483 1.46 1.3508h5.2737c.8407 0 1.4525-.571 1.4625-1.3508.0008-.1862-.036-.3707-.1083-.5423-.0722-.1717-.1784-.327-.3122-.4566-.1337-.1297-.2922-.231-.466-.298-.1739-.0669-.3596-.0981-.5458-.0917z" fill="#58c4ec"/></g></svg>