<svg fill="none" height="31" viewBox="0 0 30 31" width="30" xmlns="http://www.w3.org/2000/svg"><circle cx="15" cy="15.258" fill="#00b594" r="15"/><path d="m14.1667 5.7139c.3956-.59618 1.271-.59618 1.6666 0l2.7061 4.07856c.1328.20027.3334.34594.5649.41044l4.7152 1.3133c.6892.192.9598 1.0246.515 1.585l-3.0427 3.834c-.1494.1883-.226.424-.2158.6641l.208 4.8903c.0304.7148-.6778 1.2294-1.3482.9795l-4.5866-1.709c-.2252-.0839-.4731-.0839-.6984 0l-4.5865 1.709c-.67048.2499-1.37872-.2647-1.34831-.9795l.20805-4.8903c.01022-.2401-.06639-.4758-.21579-.6641l-3.04272-3.834c-.44477-.5604-.17425-1.393.51499-1.585l4.71518-1.3133c.2315-.0645.4321-.21017.565-.41044z" fill="#75dac8"/></svg>