<svg fill="none" height="31" viewBox="0 0 30 31" width="30" xmlns="http://www.w3.org/2000/svg"><circle cx="15" cy="15.6981" fill="#e95e63" r="15"/><path clip-rule="evenodd" d="m9.74996 20.5106c-.39696.3969-.39696 1.0405 0 1.4375.39694.3969 1.04054.3969 1.43754 0l4.3125-4.3126 4.3126 4.3126c.3969.3969 1.0405.3969 1.4375 0 .3969-.397.3969-1.0406 0-1.4375l-4.3126-4.3126 4.3125-4.3124c.3969-.397.3969-1.0406 0-1.4375-.397-.397-1.0406-.397-1.4375 0l-4.3125 4.3124-4.3124-4.3124c-.397-.397-1.0406-.397-1.43755 0-.39695.3969-.39695 1.0405 0 1.4375l4.31245 4.3124z" fill="#f08487" fill-rule="evenodd"/></svg>